<svg width="64" height="64" viewBox="0 0 64 64" fill="none" xmlns="http://www.w3.org/2000/svg">
  <defs>
    <linearGradient id="grad1" x1="0%" y1="0%" x2="100%" y2="100%">
      <stop offset="0%" style="stop-color:#667EEA;stop-opacity:1" />
      <stop offset="100%" style="stop-color:#764BA2;stop-opacity:1" />
    </linearGradient>
    <linearGradient id="grad2" x1="0%" y1="0%" x2="100%" y2="100%">
      <stop offset="0%" style="stop-color:#FF6B9D;stop-opacity:1" />
      <stop offset="100%" style="stop-color:#C44569;stop-opacity:1" />
    </linearGradient>
    <linearGradient id="grad3" x1="0%" y1="0%" x2="100%" y2="100%">
      <stop offset="0%" style="stop-color:#4FACFE;stop-opacity:1" />
      <stop offset="100%" style="stop-color:#00F2FE;stop-opacity:1" />
    </linearGradient>
    <linearGradient id="grad4" x1="0%" y1="0%" x2="100%" y2="100%">
      <stop offset="0%" style="stop-color:#43E97B;stop-opacity:1" />
      <stop offset="100%" style="stop-color:#38F9D7;stop-opacity:1" />
    </linearGradient>
  </defs>
  
  <!-- Background -->
  <rect width="64" height="64" rx="12" fill="url(#grad1)"/>
  
  <!-- Wheel segments -->
  <path d="M 32 32 L 32 12 A 20 20 0 0 1 49.3 22 Z" fill="url(#grad2)" opacity="0.9"/>
  <path d="M 32 32 L 49.3 22 A 20 20 0 0 1 49.3 42 Z" fill="url(#grad3)" opacity="0.9"/>
  <path d="M 32 32 L 49.3 42 A 20 20 0 0 1 32 52 Z" fill="url(#grad4)" opacity="0.9"/>
  <path d="M 32 32 L 32 52 A 20 20 0 0 1 14.7 42 Z" fill="url(#grad2)" opacity="0.9"/>
  <path d="M 32 32 L 14.7 42 A 20 20 0 0 1 14.7 22 Z" fill="url(#grad3)" opacity="0.9"/>
  <path d="M 32 32 L 14.7 22 A 20 20 0 0 1 32 12 Z" fill="url(#grad4)" opacity="0.9"/>
  
  <!-- Center -->
  <circle cx="32" cy="32" r="6" fill="white"/>
  <circle cx="32" cy="32" r="3" fill="#F59E0B"/>
  
  <!-- Pointer -->
  <path d="M 32 8 L 29 13 L 35 13 Z" fill="#EF4444"/>
</svg>
